<mxfile host="app.diagrams.net" agent="Mozilla/5.0 (Windows NT 10.0; Win64; x64) AppleWebKit/537.36 (KHTML, like Gecko) Chrome/131.0.0.0 Safari/537.36 Edg/131.0.0.0" version="26.0.4">
  <diagram name="Page-1" id="aZNKyT5my7erB--PenrT">
    <mxGraphModel dx="1028" dy="2235" grid="1" gridSize="10" guides="1" tooltips="1" connect="1" arrows="1" fold="1" page="1" pageScale="1" pageWidth="850" pageHeight="1100" math="0" shadow="0">
      <root>
        <mxCell id="0" />
        <mxCell id="1" parent="0" />
        <mxCell id="uh6yHDj5FXnyi5E1S4ng-1" value="Windows 10 Client wazuh Agent" style="fontColor=#0066CC;verticalAlign=top;verticalLabelPosition=bottom;labelPosition=center;align=center;html=1;outlineConnect=0;fillColor=#CCCCCC;strokeColor=#FF0A40;gradientColor=none;gradientDirection=north;strokeWidth=2;shape=mxgraph.networks.pc;" vertex="1" parent="1">
          <mxGeometry x="375" y="470" width="100" height="70" as="geometry" />
        </mxCell>
        <mxCell id="uh6yHDj5FXnyi5E1S4ng-11" style="edgeStyle=orthogonalEdgeStyle;rounded=0;orthogonalLoop=1;jettySize=auto;html=1;entryX=0.5;entryY=1;entryDx=0;entryDy=0;shape=link;" edge="1" parent="1" source="uh6yHDj5FXnyi5E1S4ng-2" target="uh6yHDj5FXnyi5E1S4ng-3">
          <mxGeometry relative="1" as="geometry" />
        </mxCell>
        <mxCell id="uh6yHDj5FXnyi5E1S4ng-2" value="Router&lt;div&gt;&lt;br&gt;&lt;/div&gt;" style="sketch=0;points=[[0.5,0,0],[1,0.5,0],[0.5,1,0],[0,0.5,0],[0.145,0.145,0],[0.8555,0.145,0],[0.855,0.8555,0],[0.145,0.855,0]];verticalLabelPosition=bottom;html=1;verticalAlign=top;aspect=fixed;align=center;pointerEvents=1;shape=mxgraph.cisco19.rect;prIcon=router;fillColor=#FAFAFA;strokeColor=#005073;" vertex="1" parent="1">
          <mxGeometry x="400" y="300" width="50" height="50" as="geometry" />
        </mxCell>
        <mxCell id="uh6yHDj5FXnyi5E1S4ng-12" style="edgeStyle=orthogonalEdgeStyle;rounded=0;orthogonalLoop=1;jettySize=auto;html=1;entryX=1;entryY=0.5;entryDx=0;entryDy=0;shape=link;strokeColor=#313131;" edge="1" parent="1">
          <mxGeometry relative="1" as="geometry">
            <mxPoint x="406.9551409291803" y="180.25" as="sourcePoint" />
            <mxPoint x="255.87000000000126" y="180" as="targetPoint" />
            <Array as="points">
              <mxPoint x="370" y="180.25" />
              <mxPoint x="370" y="180.25" />
            </Array>
          </mxGeometry>
        </mxCell>
        <mxCell id="uh6yHDj5FXnyi5E1S4ng-13" value="2.Receive Events" style="edgeLabel;html=1;align=center;verticalAlign=middle;resizable=0;points=[];" vertex="1" connectable="0" parent="uh6yHDj5FXnyi5E1S4ng-12">
          <mxGeometry x="0.1744" y="-2" relative="1" as="geometry">
            <mxPoint x="-7" y="2" as="offset" />
          </mxGeometry>
        </mxCell>
        <mxCell id="uh6yHDj5FXnyi5E1S4ng-3" value="I&lt;span style=&quot;background-color: light-dark(#ffffff, var(--ge-dark-color, #121212)); color: light-dark(rgb(0, 0, 0), rgb(255, 255, 255));&quot;&gt;nternet&lt;/span&gt;" style="image;aspect=fixed;perimeter=ellipsePerimeter;html=1;align=center;shadow=0;dashed=0;spacingTop=3;image=img/lib/active_directory/internet_cloud.svg;" vertex="1" parent="1">
          <mxGeometry x="400" y="160" width="80" height="50.4" as="geometry" />
        </mxCell>
        <mxCell id="uh6yHDj5FXnyi5E1S4ng-16" style="rounded=0;orthogonalLoop=1;jettySize=auto;html=1;entryX=0;entryY=1;entryDx=0;entryDy=0;shape=link;strokeColor=#401CFF;" edge="1" parent="1">
          <mxGeometry relative="1" as="geometry">
            <mxPoint x="239.99987402336615" y="159.48999999999995" as="sourcePoint" />
            <mxPoint x="420.6465517241379" y="40.11206896551721" as="targetPoint" />
          </mxGeometry>
        </mxCell>
        <mxCell id="uh6yHDj5FXnyi5E1S4ng-17" value="3.Send Alerts" style="edgeLabel;html=1;align=center;verticalAlign=middle;resizable=0;points=[];" vertex="1" connectable="0" parent="uh6yHDj5FXnyi5E1S4ng-16">
          <mxGeometry x="0.1315" y="-1" relative="1" as="geometry">
            <mxPoint x="-1" as="offset" />
          </mxGeometry>
        </mxCell>
        <mxCell id="uh6yHDj5FXnyi5E1S4ng-36" style="edgeStyle=orthogonalEdgeStyle;rounded=0;orthogonalLoop=1;jettySize=auto;html=1;shape=link;strokeColor=#FF0A40;" edge="1" parent="1" source="uh6yHDj5FXnyi5E1S4ng-4" target="uh6yHDj5FXnyi5E1S4ng-1">
          <mxGeometry relative="1" as="geometry">
            <Array as="points">
              <mxPoint x="212" y="370" />
              <mxPoint x="340" y="370" />
              <mxPoint x="340" y="505" />
            </Array>
          </mxGeometry>
        </mxCell>
        <mxCell id="uh6yHDj5FXnyi5E1S4ng-37" value="9. Perform Responsive Action" style="edgeLabel;html=1;align=center;verticalAlign=middle;resizable=0;points=[];" vertex="1" connectable="0" parent="uh6yHDj5FXnyi5E1S4ng-36">
          <mxGeometry x="-0.1097" y="3" relative="1" as="geometry">
            <mxPoint as="offset" />
          </mxGeometry>
        </mxCell>
        <mxCell id="uh6yHDj5FXnyi5E1S4ng-4" value="Wazuh Manager" style="image;aspect=fixed;perimeter=ellipsePerimeter;html=1;align=center;shadow=0;dashed=0;spacingTop=3;image=img/lib/active_directory/internet_cloud.svg;" vertex="1" parent="1">
          <mxGeometry x="170" y="150" width="83.49" height="52.6" as="geometry" />
        </mxCell>
        <mxCell id="uh6yHDj5FXnyi5E1S4ng-5" value="TheHive" style="image;aspect=fixed;perimeter=ellipsePerimeter;html=1;align=center;shadow=0;dashed=0;spacingTop=3;image=img/lib/active_directory/internet_cloud.svg;" vertex="1" parent="1">
          <mxGeometry x="620" y="150" width="79.36" height="50" as="geometry" />
        </mxCell>
        <mxCell id="uh6yHDj5FXnyi5E1S4ng-18" style="edgeStyle=orthogonalEdgeStyle;rounded=0;orthogonalLoop=1;jettySize=auto;html=1;shape=link;strokeColor=#14FF6D;" edge="1" parent="1" source="uh6yHDj5FXnyi5E1S4ng-6" target="uh6yHDj5FXnyi5E1S4ng-3">
          <mxGeometry relative="1" as="geometry" />
        </mxCell>
        <mxCell id="uh6yHDj5FXnyi5E1S4ng-19" value="4.Enrich IOCS" style="edgeLabel;html=1;align=center;verticalAlign=middle;resizable=0;points=[];" vertex="1" connectable="0" parent="uh6yHDj5FXnyi5E1S4ng-18">
          <mxGeometry x="0.3118" y="2" relative="1" as="geometry">
            <mxPoint x="-2" as="offset" />
          </mxGeometry>
        </mxCell>
        <mxCell id="uh6yHDj5FXnyi5E1S4ng-20" style="rounded=0;orthogonalLoop=1;jettySize=auto;html=1;shape=link;strokeColor=#ABC1FF;" edge="1" parent="1" source="uh6yHDj5FXnyi5E1S4ng-6" target="uh6yHDj5FXnyi5E1S4ng-5">
          <mxGeometry relative="1" as="geometry" />
        </mxCell>
        <mxCell id="uh6yHDj5FXnyi5E1S4ng-21" value="5. Send Alerts" style="edgeLabel;html=1;align=center;verticalAlign=middle;resizable=0;points=[];" vertex="1" connectable="0" parent="uh6yHDj5FXnyi5E1S4ng-20">
          <mxGeometry x="0.0193" y="-2" relative="1" as="geometry">
            <mxPoint as="offset" />
          </mxGeometry>
        </mxCell>
        <mxCell id="uh6yHDj5FXnyi5E1S4ng-31" style="edgeStyle=orthogonalEdgeStyle;rounded=0;orthogonalLoop=1;jettySize=auto;html=1;entryX=0.25;entryY=0;entryDx=0;entryDy=0;shape=link;strokeColor=#FF0A40;" edge="1" parent="1" source="uh6yHDj5FXnyi5E1S4ng-6" target="uh6yHDj5FXnyi5E1S4ng-4">
          <mxGeometry relative="1" as="geometry" />
        </mxCell>
        <mxCell id="uh6yHDj5FXnyi5E1S4ng-35" value="8. Send Response Action" style="edgeLabel;html=1;align=center;verticalAlign=middle;resizable=0;points=[];" vertex="1" connectable="0" parent="uh6yHDj5FXnyi5E1S4ng-31">
          <mxGeometry x="0.3857" relative="1" as="geometry">
            <mxPoint as="offset" />
          </mxGeometry>
        </mxCell>
        <mxCell id="uh6yHDj5FXnyi5E1S4ng-33" style="edgeStyle=orthogonalEdgeStyle;rounded=0;orthogonalLoop=1;jettySize=auto;html=1;shape=link;strokeColor=#FFD966;" edge="1" parent="1" source="uh6yHDj5FXnyi5E1S4ng-6">
          <mxGeometry relative="1" as="geometry">
            <mxPoint x="470" y="170" as="targetPoint" />
            <Array as="points">
              <mxPoint x="480" y="120" />
              <mxPoint x="490" y="120" />
              <mxPoint x="490" y="170" />
            </Array>
          </mxGeometry>
        </mxCell>
        <mxCell id="uh6yHDj5FXnyi5E1S4ng-34" value="6. Send Emails" style="edgeLabel;html=1;align=center;verticalAlign=middle;resizable=0;points=[];" vertex="1" connectable="0" parent="uh6yHDj5FXnyi5E1S4ng-33">
          <mxGeometry x="-0.3322" relative="1" as="geometry">
            <mxPoint x="20" y="39" as="offset" />
          </mxGeometry>
        </mxCell>
        <mxCell id="uh6yHDj5FXnyi5E1S4ng-6" value="Shuffle" style="image;aspect=fixed;perimeter=ellipsePerimeter;html=1;align=center;shadow=0;dashed=0;spacingTop=3;image=img/lib/active_directory/internet_cloud.svg;" vertex="1" parent="1">
          <mxGeometry x="390" y="-10" width="110" height="69.3" as="geometry" />
        </mxCell>
        <mxCell id="uh6yHDj5FXnyi5E1S4ng-24" style="rounded=0;orthogonalLoop=1;jettySize=auto;html=1;entryX=0.75;entryY=1;entryDx=0;entryDy=0;shape=link;strokeColor=#FFD966;" edge="1" parent="1" source="uh6yHDj5FXnyi5E1S4ng-7" target="uh6yHDj5FXnyi5E1S4ng-3">
          <mxGeometry relative="1" as="geometry" />
        </mxCell>
        <mxCell id="uh6yHDj5FXnyi5E1S4ng-25" value="7.Send &amp;amp; Receive Email" style="edgeLabel;html=1;align=center;verticalAlign=middle;resizable=0;points=[];" vertex="1" connectable="0" parent="uh6yHDj5FXnyi5E1S4ng-24">
          <mxGeometry x="-0.1453" y="-2" relative="1" as="geometry">
            <mxPoint as="offset" />
          </mxGeometry>
        </mxCell>
        <mxCell id="uh6yHDj5FXnyi5E1S4ng-27" style="edgeStyle=orthogonalEdgeStyle;rounded=0;orthogonalLoop=1;jettySize=auto;html=1;entryX=0.75;entryY=1;entryDx=0;entryDy=0;shape=link;strokeColor=#FF0A40;" edge="1" parent="1" source="uh6yHDj5FXnyi5E1S4ng-7" target="uh6yHDj5FXnyi5E1S4ng-3">
          <mxGeometry relative="1" as="geometry">
            <Array as="points">
              <mxPoint x="458" y="385" />
            </Array>
          </mxGeometry>
        </mxCell>
        <mxCell id="uh6yHDj5FXnyi5E1S4ng-28" value="8. Send Response Action" style="edgeLabel;html=1;align=center;verticalAlign=middle;resizable=0;points=[];" vertex="1" connectable="0" parent="uh6yHDj5FXnyi5E1S4ng-27">
          <mxGeometry x="-0.3614" y="2" relative="1" as="geometry">
            <mxPoint as="offset" />
          </mxGeometry>
        </mxCell>
        <mxCell id="uh6yHDj5FXnyi5E1S4ng-7" value="SOC Analyst&lt;div&gt;&lt;br&gt;&lt;/div&gt;" style="fontColor=#0066CC;verticalAlign=top;verticalLabelPosition=bottom;labelPosition=center;align=center;html=1;outlineConnect=0;fillColor=#CCCCCC;strokeColor=#6881B3;gradientColor=none;gradientDirection=north;strokeWidth=2;shape=mxgraph.networks.pc;" vertex="1" parent="1">
          <mxGeometry x="620" y="350" width="100" height="70" as="geometry" />
        </mxCell>
        <mxCell id="uh6yHDj5FXnyi5E1S4ng-8" style="edgeStyle=orthogonalEdgeStyle;rounded=0;orthogonalLoop=1;jettySize=auto;html=1;entryX=0.5;entryY=1;entryDx=0;entryDy=0;entryPerimeter=0;strokeColor=#636363;startArrow=classic;startFill=1;shape=link;" edge="1" parent="1" source="uh6yHDj5FXnyi5E1S4ng-1" target="uh6yHDj5FXnyi5E1S4ng-2">
          <mxGeometry relative="1" as="geometry" />
        </mxCell>
        <mxCell id="uh6yHDj5FXnyi5E1S4ng-9" value="1,Send Events" style="edgeLabel;html=1;align=center;verticalAlign=middle;resizable=0;points=[];" vertex="1" connectable="0" parent="uh6yHDj5FXnyi5E1S4ng-8">
          <mxGeometry x="-0.0111" y="2" relative="1" as="geometry">
            <mxPoint as="offset" />
          </mxGeometry>
        </mxCell>
        <mxCell id="uh6yHDj5FXnyi5E1S4ng-30" style="edgeStyle=orthogonalEdgeStyle;rounded=0;orthogonalLoop=1;jettySize=auto;html=1;entryX=0.273;entryY=0.866;entryDx=0;entryDy=0;entryPerimeter=0;shape=link;strokeColor=#FF3333;width=5;exitX=0;exitY=0;exitDx=0;exitDy=0;" edge="1" parent="1" source="uh6yHDj5FXnyi5E1S4ng-3" target="uh6yHDj5FXnyi5E1S4ng-6">
          <mxGeometry relative="1" as="geometry">
            <Array as="points">
              <mxPoint x="400" y="168" />
              <mxPoint x="400" y="110" />
              <mxPoint x="420" y="110" />
            </Array>
          </mxGeometry>
        </mxCell>
        <mxCell id="uh6yHDj5FXnyi5E1S4ng-44" style="edgeStyle=orthogonalEdgeStyle;rounded=0;orthogonalLoop=1;jettySize=auto;html=1;" edge="1" parent="1" source="uh6yHDj5FXnyi5E1S4ng-38" target="uh6yHDj5FXnyi5E1S4ng-40">
          <mxGeometry relative="1" as="geometry" />
        </mxCell>
        <mxCell id="uh6yHDj5FXnyi5E1S4ng-38" value="Windows 10&amp;nbsp;&lt;div&gt;Send Events&lt;/div&gt;" style="text;html=1;align=center;verticalAlign=middle;resizable=0;points=[];autosize=1;strokeColor=none;fillColor=none;" vertex="1" parent="1">
          <mxGeometry y="800" width="90" height="40" as="geometry" />
        </mxCell>
        <mxCell id="uh6yHDj5FXnyi5E1S4ng-45" style="edgeStyle=orthogonalEdgeStyle;rounded=0;orthogonalLoop=1;jettySize=auto;html=1;" edge="1" parent="1" source="uh6yHDj5FXnyi5E1S4ng-40" target="uh6yHDj5FXnyi5E1S4ng-41">
          <mxGeometry relative="1" as="geometry" />
        </mxCell>
        <mxCell id="uh6yHDj5FXnyi5E1S4ng-40" value="Wazuh Manager&lt;div&gt;Trigger alerts &amp;amp; Perform response actions&lt;/div&gt;" style="text;html=1;align=center;verticalAlign=middle;resizable=0;points=[];autosize=1;strokeColor=none;fillColor=none;" vertex="1" parent="1">
          <mxGeometry x="150" y="800" width="250" height="40" as="geometry" />
        </mxCell>
        <mxCell id="uh6yHDj5FXnyi5E1S4ng-46" style="edgeStyle=orthogonalEdgeStyle;rounded=0;orthogonalLoop=1;jettySize=auto;html=1;" edge="1" parent="1" source="uh6yHDj5FXnyi5E1S4ng-41">
          <mxGeometry relative="1" as="geometry">
            <mxPoint x="580" y="740" as="targetPoint" />
          </mxGeometry>
        </mxCell>
        <mxCell id="uh6yHDj5FXnyi5E1S4ng-48" style="edgeStyle=orthogonalEdgeStyle;rounded=0;orthogonalLoop=1;jettySize=auto;html=1;" edge="1" parent="1" source="uh6yHDj5FXnyi5E1S4ng-41">
          <mxGeometry relative="1" as="geometry">
            <mxPoint x="580" y="890" as="targetPoint" />
          </mxGeometry>
        </mxCell>
        <mxCell id="uh6yHDj5FXnyi5E1S4ng-51" style="edgeStyle=orthogonalEdgeStyle;rounded=0;orthogonalLoop=1;jettySize=auto;html=1;" edge="1" parent="1" source="uh6yHDj5FXnyi5E1S4ng-41" target="uh6yHDj5FXnyi5E1S4ng-50">
          <mxGeometry relative="1" as="geometry" />
        </mxCell>
        <mxCell id="uh6yHDj5FXnyi5E1S4ng-41" value="Shuffle&lt;div&gt;Receive Wazuh alerts &amp;amp; send responsive actions&lt;/div&gt;" style="text;html=1;align=center;verticalAlign=middle;resizable=0;points=[];autosize=1;strokeColor=none;fillColor=none;" vertex="1" parent="1">
          <mxGeometry x="440" y="800" width="280" height="40" as="geometry" />
        </mxCell>
        <mxCell id="uh6yHDj5FXnyi5E1S4ng-47" value="OSINT&lt;div&gt;Enrich IOCS&lt;/div&gt;" style="text;html=1;align=center;verticalAlign=middle;resizable=0;points=[];autosize=1;strokeColor=none;fillColor=none;" vertex="1" parent="1">
          <mxGeometry x="535" y="700" width="90" height="40" as="geometry" />
        </mxCell>
        <mxCell id="uh6yHDj5FXnyi5E1S4ng-49" value="TheHive&lt;div&gt;Create alerts in case management&lt;/div&gt;" style="text;html=1;align=center;verticalAlign=middle;resizable=0;points=[];autosize=1;strokeColor=none;fillColor=none;" vertex="1" parent="1">
          <mxGeometry x="475" y="890" width="210" height="40" as="geometry" />
        </mxCell>
        <mxCell id="uh6yHDj5FXnyi5E1S4ng-50" value="Email&lt;div&gt;Send email &amp;amp; Responsive actions&lt;/div&gt;" style="text;html=1;align=center;verticalAlign=middle;resizable=0;points=[];autosize=1;strokeColor=none;fillColor=none;" vertex="1" parent="1">
          <mxGeometry x="820" y="800" width="200" height="40" as="geometry" />
        </mxCell>
      </root>
    </mxGraphModel>
  </diagram>
</mxfile>
